HIERARCHY
ROOT Hips
{
	OFFSET	0.00	0.00	0.00
	CHANNELS 6 Xposition Yposition Zposition Zrotation Xrotation Yrotation
	JOINT LeftUpLeg
	{
		OFFSET	 0.126116	-0.014019	-0.065224
		CHANNELS 3 Zrotation Xrotation Yrotation
		JOINT LeftLeg
		{
			OFFSET	 0.000000	 0.000000	 0.569914
			CHANNELS 3 Zrotation Xrotation Yrotation
			JOINT LeftFoot
			{
				OFFSET	 0.000000	 0.000000	 0.544423
				CHANNELS 3 Zrotation Xrotation Yrotation
				JOINT LeftToeBase
				{
					OFFSET	 0.000000	 0.000000	 0.207117
					CHANNELS 3 Zrotation Xrotation Yrotation
					End Site
					{
						OFFSET	 0.000000	 0.000000	 0.207117
					}
				}
			}
		}
	}
	JOINT RightUpLeg
	{
		OFFSET	-0.124023	-0.008373	-0.065224
		CHANNELS 3 Zrotation Xrotation Yrotation
		JOINT RightLeg
		{
			OFFSET	 0.000000	 0.000000	 0.570047
			CHANNELS 3 Zrotation Xrotation Yrotation
			JOINT RightFoot
			{
				OFFSET	 0.000000	 0.000000	 0.544354
				CHANNELS 3 Zrotation Xrotation Yrotation
				JOINT RightToeBase
				{
					OFFSET	 0.000000	 0.000000	 0.207540
					CHANNELS 3 Zrotation Xrotation Yrotation
					End Site
					{
						OFFSET	 0.000000	 0.000000	 0.207540
					}
				}
			}
		}
	}
	JOINT Spine
	{
		OFFSET	 0.000184	-0.007763	 0.117403
		CHANNELS 3 Zrotation Xrotation Yrotation
		JOINT Spine1
		{
			OFFSET	 0.000000	 0.000000	 0.137269
			CHANNELS 3 Zrotation Xrotation Yrotation
			JOINT Spine2
			{
				OFFSET	 0.000000	 0.000000	 0.156879
				CHANNELS 3 Zrotation Xrotation Yrotation
				JOINT LeftShoulder
				{
					OFFSET	 0.080501	-0.002496	 0.160144
					CHANNELS 3 Zrotation Xrotation Yrotation
					JOINT LeftArm
					{
						OFFSET	 0.000000	 0.000000	 0.164363
						CHANNELS 3 Zrotation Xrotation Yrotation
						JOINT LeftForeArm
						{
							OFFSET	 0.000000	 0.000000	 0.364576
							CHANNELS 3 Zrotation Xrotation Yrotation
							JOINT LeftHand
							{
								OFFSET	 0.000000	 0.000000	 0.360812
								CHANNELS 3 Zrotation Xrotation Yrotation
								JOINT LeftHandIndex1
								{
									OFFSET	 0.000000	 0.000000	 0.086006
									CHANNELS 3 Zrotation Xrotation Yrotation
									JOINT LeftHandIndex2
									{
										OFFSET	 0.000000	 0.000000	 0.047236
										CHANNELS 3 Zrotation Xrotation Yrotation
										JOINT LeftHandIndex3
										{
											OFFSET	-0.004284	-0.000551	 0.038166
											CHANNELS 3 Zrotation Xrotation Yrotation
											End Site
											{
												OFFSET	-0.004284	-0.000551	 0.038166
											}
										}
									}
								}
							}
						}
					}
				}
				JOINT Neck
				{
					OFFSET	 0.000000	 0.000000	 0.176489
					CHANNELS 3 Zrotation Xrotation Yrotation
					JOINT Head
					{
						OFFSET	 0.000000	-0.001747	 0.077940
						CHANNELS 3 Zrotation Xrotation Yrotation
						End Site
						{
							OFFSET	 0.000000	-0.001747	 0.077940
						}
					}
				}
				JOINT RightShoulder
				{
					OFFSET	-0.080363	 0.000306	 0.159706
					CHANNELS 3 Zrotation Xrotation Yrotation
					JOINT RightArm
					{
						OFFSET	 0.000000	 0.000000	 0.164196
						CHANNELS 3 Zrotation Xrotation Yrotation
						JOINT RightForeArm
						{
							OFFSET	 0.000000	 0.000000	 0.365611
							CHANNELS 3 Zrotation Xrotation Yrotation
							JOINT RightHand
							{
								OFFSET	 0.000000	 0.000000	 0.360648
								CHANNELS 3 Zrotation Xrotation Yrotation
								JOINT RightHandIndex1
								{
									OFFSET	 0.000000	 0.000000	 0.069977
									CHANNELS 3 Zrotation Xrotation Yrotation
									JOINT RightHandIndex2
									{
										OFFSET	 0.000000	 0.000000	 0.052305
										CHANNELS 3 Zrotation Xrotation Yrotation
										JOINT RightHandIndex3
										{
											OFFSET	 0.009002	-0.000782	 0.042196
											CHANNELS 3 Zrotation Xrotation Yrotation
											End Site
											{
												OFFSET	 0.009002	-0.000782	 0.042196
											}
										}
									}
								}
							}
						}
					}
				}
			}
		}
	}
}
MOTION
Frames:    13
Frame Time: 0.03333334
 0.000293	 0.019718	 1.271122	-0.003169	 0.003331	 0.173059	 7.813071	-1.863209	 176.277100	 1.484301	-11.032900	-0.642681	-9.067591	 70.042570	 3.165704	-2.385833	 28.452760	 0.000004	-7.984704	-1.888622	-176.596700	-1.474668	-10.674770	 0.609899	 8.632785	 69.742040	-2.897399	 2.384658	 28.388730	 0.000004	-5.356115	 2.713421	 0.300745	-2.162192	 3.697673	-0.809931	 6.545955	-4.538090	 1.411544	-91.776250	 78.527470	-179.999900	 49.908090	 36.958290	-60.210660	-8.665383	 0.189361	-0.766795	-30.505890	-11.658830	-4.488586	-2.635965	 4.993658	 6.788941	-5.165319	 0.784187	 3.516649	-5.225038	 0.466231	 0.424329	-0.000002	-3.783157	-0.089647	 6.371031	 4.610773	-0.256763	 89.782100	 78.203890	 180.000000	-64.078670	 41.953800	 59.927250	 8.692392	 0.213544	 0.778361	 30.902810	-12.341040	 9.197721	 6.112037	 4.509576	-0.364401	 4.968462	 1.518543	-9.347576	 5.168945	 0.703820	 2.021906
 0.000298	 0.019731	 1.271185	-0.002275	 0.004933	 0.174127	 8.912836	-1.992398	 176.212200	 1.483221	-11.126970	-0.648300	-9.054914	 70.021510	 3.154956	-2.385833	 28.452760	 0.000004	-9.085573	-2.014503	-176.538200	-1.473552	-10.776950	 0.615877	 8.615238	 69.729390	-2.879023	 2.384658	 28.388730	 0.000004	-14.325910	 2.536841	 0.271679	-2.121651	 4.309120	-0.750013	 6.419416	-5.333375	 1.435846	-91.776170	 78.527450	 180.000000	 49.998110	 36.885770	-59.781830	-12.920680	 0.469581	-3.426943	-32.697510	-13.790650	-5.019885	-2.635965	 4.993658	 6.788941	-5.165319	 0.784187	 3.516649	-5.225038	 0.466231	 0.424329	-0.000002	-3.783157	-0.089647	 6.215825	 4.256639	-0.231240	 89.782100	 78.203870	 180.000000	-63.404200	 41.459730	 61.435180	 12.256400	 0.489068	 3.439425	 33.096890	-14.682420	 9.582847	 6.112037	 4.509576	-0.364401	 4.968462	 1.518543	-9.347576	 5.168945	 0.703820	 2.021906
 0.000287	 0.019754	 1.271293	-0.001221	 0.006581	 0.167782	 10.049580	-2.119389	 176.153200	 1.482251	-11.210310	-0.653282	-9.034470	 69.992930	 3.136615	-2.385833	 28.452760	 0.000004	-10.221180	-2.153003	-176.473200	-1.472257	-10.895080	 0.622792	 8.596869	 69.723200	-2.858869	 2.384658	 28.388730	 0.000004	-23.221110	 2.360603	 0.238689	-2.005584	 4.919317	-0.664652	 6.063109	-6.142228	 1.404580	-91.776030	 78.527470	 179.999900	 50.055850	 36.767110	-59.262990	-17.388300	 1.197336	-6.189124	-35.083140	-15.970750	-5.767325	-2.635965	 4.993658	 6.788941	-5.165319	 0.784187	 3.516649	-5.225038	 0.466231	 0.424329	-0.000002	-3.783157	-0.089647	 5.839080	 3.927586	-0.200397	 89.782250	 78.203900	 179.999900	-60.725340	 39.721760	 59.698510	 15.161260	 5.504447	 13.344090	 35.808200	-17.505680	 10.038380	 6.112037	 4.509576	-0.364401	 4.968462	 1.518543	-9.347576	 5.168945	 0.703820	 2.021906
 0.000253	 0.019796	 1.271410	-0.000186	 0.007987	 0.153332	 11.191520	-2.236260	 176.102200	 1.481519	-11.273300	-0.657050	-8.990818	 69.954920	 3.105987	-2.385833	 28.452760	 0.000004	-11.338270	-2.301399	-176.403900	-1.470746	-11.030660	 0.630736	 8.591962	 69.726620	-2.842052	 2.384658	 28.388730	 0.000004	-30.818510	 2.197469	 0.206444	-1.815805	 5.484866	-0.561906	 5.484824	-6.905876	 1.310634	-91.776180	 78.527430	 180.000000	 50.074790	 36.610600	-58.687970	-21.679690	 2.324287	-8.781780	-37.497960	-17.956000	-6.678875	-2.635965	 4.993658	 6.788941	-5.165319	 0.784187	 3.516649	-5.225038	 0.466231	 0.424329	-0.000002	-3.783157	-0.089647	 5.254715	 3.644192	-0.167295	 89.782070	 78.203900	-180.000000	-57.623120	 37.839120	 61.589590	 17.160500	 9.314715	 19.435030	 38.244400	-20.334110	 10.545470	 6.112037	 4.509576	-0.364401	 4.968462	 1.518543	-9.347576	 5.168945	 0.703820	 2.021906
 0.000200	 0.019838	 1.271384	 0.000684	 0.008900	 0.131079	 12.303700	-2.341680	 176.061100	 1.480969	-11.320190	-0.659856	-8.957579	 69.909780	 3.072268	-2.385833	 28.452760	 0.000004	-12.448300	-2.461247	-176.330200	-1.469001	-11.185090	 0.639793	 8.574129	 69.741400	-2.823737	 2.384658	 28.388730	 0.000004	-36.441940	 2.054545	 0.177934	-1.558329	 5.982177	-0.448586	 4.705268	-7.588599	 1.153435	-91.776180	 78.527470	 180.000000	 50.044140	 36.414290	-58.059660	-25.724580	 3.746192	-11.089950	-39.769520	-19.612630	-7.674174	-2.635965	 4.993658	 6.788941	-5.165319	 0.784187	 3.516649	-5.225038	 0.466231	 0.424329	-0.000002	-3.783157	-0.089647	 4.487395	 3.412187	-0.133741	 89.782030	 78.203850	-180.000000	-54.012470	 35.673590	 65.510730	 18.052880	 12.107760	 23.342900	 39.680250	-23.204730	 10.698450	 6.112037	 4.509576	-0.364401	 4.968462	 1.518543	-9.347576	 5.168945	 0.703820	 2.021906
 0.000129	 0.019879	 1.271099	 0.001165	 0.009225	 0.100879	 13.447330	-2.443600	 176.026600	 1.480513	-11.358960	-0.662176	-8.918392	 69.858870	 3.032151	-2.385833	 28.452760	 0.000004	-13.586990	-2.640107	-176.250200	-1.466905	-11.367760	 0.650520	 8.558442	 69.769330	-2.807507	 2.384658	 28.388730	 0.000004	-39.773940	 1.932487	 0.153342	-1.225851	 6.409961	-0.324931	 3.704916	-8.184263	 0.926002	-91.776120	 78.527470	 179.999900	 49.971270	 36.181520	-57.395280	-29.441180	 5.409596	-13.139980	-42.094340	-20.927490	-8.754469	-2.635965	 4.993658	 6.788941	-5.165319	 0.784187	 3.516649	-5.225038	 0.466231	 0.424329	-0.000002	-3.783157	-0.089647	 3.521548	 3.225613	-0.099198	 89.782050	 78.203890	-180.000000	-49.803730	 33.303610	 70.430890	 18.098240	 14.053120	 25.783700	 40.321670	-25.896270	 10.562340	 6.112037	 4.509576	-0.364401	 4.968462	 1.518543	-9.347576	 5.168945	 0.703820	 2.021906
 0.000018	 0.019893	 1.270708	 0.001886	 0.012911	 0.078529	 14.474750	-2.523190	 175.989500	 1.480534	-11.357300	-0.662078	-8.874884	 69.793640	 2.987399	-2.385833	 28.452760	 0.000004	-14.609720	-2.802626	-176.184100	-1.465056	-11.526280	 0.659838	 8.543082	 69.791360	-2.791556	 2.384658	 28.388730	 0.000004	-40.357200	 1.845789	 0.125502	-0.877140	 6.703994	-0.211546	 2.660018	-8.598465	 0.670827	-91.776220	 78.527450	-180.000000	 49.849040	 35.942540	-56.765830	-32.387710	 6.964545	-14.676080	-44.066650	-21.708600	-9.692603	-2.635965	 4.993658	 6.788941	-5.165319	 0.784187	 3.516649	-5.225038	 0.466231	 0.424329	-0.000002	-3.783157	-0.089647	 2.526334	 3.104104	-0.068475	 89.782170	 78.203900	 179.999900	-45.804820	 30.811160	 75.954490	 17.938380	 14.615820	 26.046000	 40.016800	-27.760600	 10.137250	 6.112037	 4.509576	-0.364401	 4.968462	 1.518543	-9.347576	 5.168945	 0.703820	 2.021906
-0.000113	 0.019853	 1.270131	 0.001792	 0.016158	 0.048364	 15.621960	-2.807279	 175.968300	 1.475684	-11.761170	-0.686286	-8.946102	 69.924580	 3.064999	-2.385833	 28.452760	 0.000004	-15.752090	-3.148244	-176.118300	-1.458927	-12.035460	 0.689847	 8.619814	 69.983160	-2.873624	 2.384658	 28.388730	 0.000004	-38.131080	 1.736403	 0.124027	-0.437180	 7.004388	-0.129900	 1.360253	-8.939693	 0.361159	-91.776180	 78.527470	 180.000000	 49.660840	 35.644090	-56.066370	-35.215190	 8.654166	-16.058890	-46.100470	-22.092090	-10.627720	-2.635965	 4.993658	 6.788941	-5.165319	 0.784187	 3.516649	-5.225038	 0.466231	 0.424329	-0.000002	-3.783157	-0.089647	 1.296765	 3.019807	-0.034196	 89.782200	 78.203890	 179.999900	-41.569190	 27.788110	 83.298520	 17.653440	 13.485060	 23.548890	 38.698440	-29.093440	 9.262409	 6.112037	 4.509576	-0.364401	 4.968462	 1.518543	-9.347576	 5.168945	 0.703820	 2.021906
-0.000220	 0.019824	 1.269333	-0.000198	 0.017304	 0.013368	 16.751120	-3.226887	 175.964900	 1.466926	-12.455440	-0.728066	-9.103399	 70.203410	 3.233802	-2.385833	 28.452760	 0.000004	-16.870050	-3.657039	-176.061900	-1.448122	-12.880680	 0.739913	 8.797677	 70.345440	-3.062866	 2.384658	 28.388730	 0.000004	-32.981410	 1.714989	 0.085017	 0.013967	 7.079277	 0.027326	 0.000875	-9.043061	-0.009328	-91.776190	 78.527490	 180.000000	 49.396990	 35.307240	-55.359080	-37.450240	 10.129620	-17.080590	-47.856330	-21.931480	-11.339080	-2.635965	 4.993658	 6.788941	-5.165319	 0.784187	 3.516649	-5.225038	 0.466231	 0.424329	-0.000002	-3.783157	-0.089647	 0.018069	 2.991346	-0.000486	 89.782140	 78.203890	 180.000000	-37.094510	 24.556840	 92.141970	 17.307120	 10.030120	 17.207940	 36.642650	-29.467300	 8.038649	 6.112037	 4.509576	-0.364401	 4.968462	 1.518543	-9.347576	 5.168945	 0.703820	 2.021906
-0.000322	 0.019838	 1.268464	-0.001077	 0.017793	-0.029301	 17.828560	-3.645322	 175.973600	 1.457433	-13.162520	-0.770851	-9.267097	 70.492300	 3.408771	-2.385833	 28.452760	 0.000004	-17.937110	-4.163901	-176.003000	-1.436560	-13.723090	 0.790147	 8.979558	 70.710160	-3.255503	 2.384658	 28.388730	 0.000004	-25.609910	 1.737789	 0.052233	 0.454177	 7.010364	 0.188229	-1.311247	-8.946822	-0.369656	-91.776230	 78.527420	-180.000000	 49.094050	 34.958890	-54.713940	-39.027210	 11.240150	-17.755000	-49.250680	-21.281000	-11.754420	-2.635965	 4.993658	 6.788941	-5.165319	 0.784187	 3.516649	-5.225038	 0.466231	 0.424329	-0.000002	-3.783157	-0.089647	-1.206209	 3.015484	 0.031736	 89.782110	 78.203900	 180.000000	-31.001970	 20.395240	 95.080270	 14.962820	 11.113660	 17.901770	 33.308720	-28.750940	 6.517066	 6.112037	 4.509576	-0.364401	 4.968462	 1.518543	-9.347576	 5.168945	 0.703820	 2.021906
-0.000391	 0.019865	 1.267325	-0.001137	 0.015330	-0.075219	 18.844230	-4.144123	 175.995100	 1.444638	-14.055110	-0.825215	-9.497474	 70.878460	 3.653809	-2.385833	 28.452760	 0.000004	-18.943440	-4.739820	-175.949500	-1.421883	-14.717760	 0.849931	 9.220521	 71.155510	-3.509942	 2.384658	 28.388730	 0.000004	-16.819370	 1.838596	 0.062132	 0.850751	 6.749129	 0.276980	-2.491888	-8.652662	-0.659425	-91.776120	 78.527420	 179.999900	 48.722190	 34.583150	-54.097270	-39.995080	 11.951240	-18.149510	-50.297060	-20.237500	-11.875460	-2.635965	 4.993658	 6.788941	-5.165319	 0.784187	 3.516649	-5.225038	 0.466231	 0.424329	-0.000002	-3.783157	-0.089647	-2.323633	 3.084962	 0.062565	 89.782160	 78.203900	 179.999900	-24.129090	 15.917100	 97.934850	 12.238390	 11.799440	 18.315920	 29.726440	-27.190760	 5.001899	 6.112037	 4.509576	-0.364401	 4.968462	 1.518543	-9.347576	 5.168945	 0.703820	 2.021906
-0.000426	 0.020928	 1.266506	-0.000547	 0.010763	-0.122272	 19.121390	-4.446214	 176.047100	 1.435593	-14.650420	-0.861710	-9.669872	 71.150110	 3.836462	-2.385833	 28.452760	 0.000004	-19.209510	-5.177571	-175.936400	-1.410330	-15.450190	 0.894304	 9.366383	 71.462720	-3.662753	 2.384658	 28.388730	 0.000004	-6.448653	 1.930471	 0.055940	 1.222075	 6.455668	 0.396843	-3.611112	-8.234156	-0.935321	-91.776120	 78.527450	 179.999900	 48.361300	 34.247560	-53.665150	-40.434210	 12.281290	-18.323390	-51.091970	-18.759390	-11.710840	-2.635965	 4.993658	 6.788941	-5.165319	 0.784187	 3.516649	-5.225038	 0.466231	 0.424329	-0.000002	-3.783157	-0.089647	-3.391270	 3.204829	 0.094883	 89.782100	 78.203900	 180.000000	-16.545420	 12.667210	 101.080300	 9.227397	 12.102660	 18.503150	 27.556000	-25.171440	 3.699399	 6.112037	 4.509576	-0.364401	 4.968462	 1.518543	-9.347576	 5.168945	 0.703820	 2.021906
-0.000480	 0.022353	 1.266270	-0.000887	 0.006724	-0.155150	 19.118860	-4.516510	 176.086100	 1.433322	-14.796120	-0.870668	-9.702511	 71.209520	 3.870960	-2.385833	 28.452760	 0.000004	-19.195800	-5.390423	-175.940600	-1.405715	-15.732510	 0.911487	 9.355697	 71.539770	-3.650043	 2.384658	 28.388730	 0.000004	 4.711087	 2.051872	 0.035107	 1.548240	 6.055630	 0.510056	-4.598138	-7.672548	-1.159799	-91.776230	 78.527470	-180.000000	 47.975310	 33.910130	-53.291020	-40.278310	 12.163390	-18.261880	-51.609310	-16.896710	-11.256530	-2.635965	 4.993658	 6.788941	-5.165319	 0.784187	 3.516649	-5.225038	 0.466231	 0.424329	-0.000002	-3.783157	-0.089647	-4.347467	 3.377150	 0.128209	 89.782140	 78.203900	 180.000000	-9.808719	 11.313410	 103.846400	 6.001440	 11.959370	 18.451500	 26.688420	-22.823090	 2.565374	 6.112037	 4.509576	-0.364401	 4.968462	 1.518543	-9.347576	 5.168945	 0.703820	 2.021906
